<?xml version="1.0" encoding="UTF-8" standalone="no"?> <svg id="icon" fill="#fff" xmlns="http://www.w3.org/2000/svg" viewBox="0 0 512 512"><title>astronaut</title><path d="M419.542,242.6a51.882,51.882,0,0,1,11.147,32.32v52.171a5.587,5.587,0,0,0,11.173,0V274.921a62.946,62.946,0,0,0-13.53-39.215,5.586,5.586,0,1,0-8.79,6.9Z"/><path d="M77.271,330.354a5.588,5.588,0,0,0,5.587-5.587V274.921a52.334,52.334,0,0,1,13.219-34.8,5.587,5.587,0,0,0-8.352-7.422,63.5,63.5,0,0,0-16.04,42.221v49.846A5.587,5.587,0,0,0,77.271,330.354Z"/><path d="M102.87,218.425a35.464,35.464,0,0,0,11.57,11.445,5.587,5.587,0,1,0,5.811-9.543,24.222,24.222,0,0,1-7.905-7.821,66.532,66.532,0,0,1-8.909-22.133,21.5,21.5,0,0,1,4.849-18.39,129.7,129.7,0,0,1,10.069-10.313c-.045,1.457-.076,2.916-.076,4.383a137.093,137.093,0,0,0,22.986,76.2,5.586,5.586,0,0,0,9.3-6.189,126.55,126.55,0,1,1,210.446.629,5.587,5.587,0,1,0,9.265,6.245,137.047,137.047,0,0,0,23.444-76.885c0-1.467-.031-2.926-.077-4.382a129.176,129.176,0,0,1,10.07,10.312,21.5,21.5,0,0,1,4.849,18.389,66.523,66.523,0,0,1-8.91,22.135,24.044,24.044,0,0,1-4.922,5.675,5.586,5.586,0,1,0,7.2,8.547,35.218,35.218,0,0,0,7.2-8.3,77.669,77.669,0,0,0,10.386-25.847,32.6,32.6,0,0,0-7.34-27.889,165.946,165.946,0,0,0-19.971-19.06c-9.9-66.289-67.2-117.3-136.2-117.3S129.692,79.34,119.8,145.629a166.007,166.007,0,0,0-19.971,19.06,32.6,32.6,0,0,0-7.34,27.89A77.651,77.651,0,0,0,102.87,218.425Z"/><path d="M248.892,93.439a5.586,5.586,0,1,0,0-11.172H232.729a75.907,75.907,0,0,0-17.13,1.958,5.38,5.38,0,0,0-.541.129,76.688,76.688,0,0,0-58.084,63.94,189.98,189.98,0,0,0-1.836,24.764c0,.5.015.994.051,1.5,0,.006.012.161.013.166A62,62,0,0,0,216.8,231.8h78.409A62,62,0,0,0,356.8,174.72s.012-.16.013-.166c.036-.5.053-.994.051-1.5a189.982,189.982,0,0,0-1.836-24.765A76.69,76.69,0,0,0,296.94,84.353c-.177-.054-.354-.091-.534-.127a75.9,75.9,0,0,0-17.135-1.959H277.62a5.586,5.586,0,0,0,0,11.172h1.651c1.966,0,3.915.093,5.843.267l-10.165,13.085a12.733,12.733,0,0,1-10.121,4.954H247.172a12.733,12.733,0,0,1-10.121-4.954L226.886,93.706c1.928-.174,3.877-.267,5.843-.267Zm-20.664,20.206a23.83,23.83,0,0,0,18.944,9.272h17.656a23.83,23.83,0,0,0,18.944-9.272l13.672-17.6A65.449,65.449,0,0,1,343.955,149.8a179.152,179.152,0,0,1,1.735,23.3c0,.219-.007.433-.016.569l-.017.214a50.785,50.785,0,0,1-50.452,46.747H216.8a50.816,50.816,0,0,1-50.463-46.878c-.016-.219-.023-.433-.023-.653a179.316,179.316,0,0,1,1.734-23.3,65.452,65.452,0,0,1,46.511-53.756Z"/><path d="M154.883,273.209a5.587,5.587,0,0,0,5.586-5.587,10.065,10.065,0,0,1,10.053-10.053H341.478a10.065,10.065,0,0,1,10.053,10.053,5.587,5.587,0,1,0,11.173,0A21.249,21.249,0,0,0,341.478,246.4H170.522A21.249,21.249,0,0,0,149.3,267.622,5.588,5.588,0,0,0,154.883,273.209Z"/><path d="M204.6,127.313a5.586,5.586,0,0,0-7.73,1.633q-1.032,1.585-1.97,3.127a5.586,5.586,0,1,0,9.543,5.81q.852-1.4,1.79-2.84A5.587,5.587,0,0,0,204.6,127.313Z"/><path d="M201.159,185.029c-.429-.347-10.465-8.7-5.3-28.022a5.586,5.586,0,1,0-10.793-2.886c-7.177,26.846,8.588,39.235,9.263,39.749a5.62,5.62,0,0,0,7.858-1.034A5.555,5.555,0,0,0,201.159,185.029Z"/><path d="M70.716,483.668a5.586,5.586,0,0,0,5.586-5.586V430.117a171.221,171.221,0,0,1,15.515-71.861c20.022-42.993,49.188-58.41,64.792-63.774a59.37,59.37,0,0,1,9.936-2.6h36.341l11.049,17.982a27.413,27.413,0,0,0,23.2,12.976,5.587,5.587,0,1,0,0-11.173,16.163,16.163,0,0,1-13.684-7.653L216,291.885h80l-7.455,12.132a16.163,16.163,0,0,1-13.685,7.653,5.587,5.587,0,0,0,0,11.173,27.413,27.413,0,0,0,23.2-12.976l11.049-17.982h36.355c4.33.613,47.6,8.143,74.714,66.371A171.228,171.228,0,0,1,435.7,430.117v47.965a5.586,5.586,0,0,0,11.172,0V430.117a182.469,182.469,0,0,0-16.559-76.577C399.578,287.547,348.623,281,346.47,280.748a5.9,5.9,0,0,0-.636-.036H166.165a5.862,5.862,0,0,0-.635.036,65.381,65.381,0,0,0-12.553,3.168c-17.281,5.94-49.522,22.885-71.288,69.623A182.467,182.467,0,0,0,65.13,430.117v47.965A5.586,5.586,0,0,0,70.716,483.668Z"/><path d="M365.637,481.365a5.587,5.587,0,0,0,5.586-5.586v-55.8a52.554,52.554,0,0,0-52.495-52.495H194.819a52.554,52.554,0,0,0-52.495,52.5v55.8a5.586,5.586,0,0,0,11.172,0v-55.8a41.371,41.371,0,0,1,41.323-41.323H318.728a41.371,41.371,0,0,1,41.323,41.323v55.8A5.587,5.587,0,0,0,365.637,481.365Z"/><path d="M210.114,452.037a22.089,22.089,0,0,1-22.064-22.064,5.587,5.587,0,0,0-11.173,0,33.207,33.207,0,1,0,24.667-32.119,5.586,5.586,0,0,0,2.873,10.8,22.067,22.067,0,1,1,5.7,43.387Z"/><path d="M266.654,427.123v5.7a5.587,5.587,0,0,0,11.173,0v-5.7a5.587,5.587,0,0,0-11.173,0Z"/><path d="M295.656,427.123v5.7a5.586,5.586,0,1,0,11.172,0v-5.7a5.586,5.586,0,1,0-11.172,0Z"/><path d="M324.656,427.123v5.7a5.587,5.587,0,0,0,11.173,0v-5.7a5.587,5.587,0,0,0-11.173,0Z"/></svg>