<?xml version="1.0" encoding="UTF-8" standalone="no"?> <svg id="icon" fill="#fff" xmlns="http://www.w3.org/2000/svg" viewBox="0 0 512 512"><title>earth</title><path d="M478.854,204.633a228.141,228.141,0,0,0-48.293-96.168,5.568,5.568,0,0,0-1.224-1.448A228.231,228.231,0,0,0,256,27.327c-.571,0-1.14.009-1.709.019l-.916.014c-.075,0-.148.012-.222.016a228.939,228.939,0,0,0-59.661,8.6,5.587,5.587,0,0,0,3.048,10.75,217.524,217.524,0,0,1,53.125-8.118l5.595,14.184c.021.055.043.108.066.161a105.69,105.69,0,0,0,97.136,63.907,5.586,5.586,0,1,0,0-11.172A94.524,94.524,0,0,1,265.62,48.611l-3.959-10.038a216.9,216.9,0,0,1,151.394,67.115H389.11a5.586,5.586,0,0,0,0,11.172h33.927A217.119,217.119,0,0,1,466.3,200.431H420.08A40.888,40.888,0,0,0,382,226.118a29.761,29.761,0,0,1-27.715,18.7h-10.1a64.053,64.053,0,0,0-62.571,77.755,64.436,64.436,0,0,0,62.571,50.353h38.206a5.586,5.586,0,0,0,0-11.172H344.185a53.2,53.2,0,0,1-51.658-41.57,52.881,52.881,0,0,1,51.658-64.194h10.1A40.889,40.889,0,0,0,392.364,230.3a29.76,29.76,0,0,1,27.716-18.7h48.859A217.426,217.426,0,0,1,446,361.752H415.949a5.586,5.586,0,0,0,0,11.172h23.377A217.523,217.523,0,0,1,256,473.5c-80.137,0-150.281-43.57-188.013-108.259H115.25a114.9,114.9,0,0,1,79.573,31.829l3.514,3.347a57.891,57.891,0,0,0,40.093,16.037h19.725a47.136,47.136,0,0,1,40.509,23.2,5.586,5.586,0,1,0,9.637-5.651,58.347,58.347,0,0,0-50.146-28.724H238.43a46.769,46.769,0,0,1-32.388-12.956l-3.513-3.346a126.028,126.028,0,0,0-87.279-34.912H61.9A217.866,217.866,0,0,1,84.473,121.981h29.589a29.76,29.76,0,0,1,27.716,18.7,40.891,40.891,0,0,0,38.076,25.686h10.1A52.9,52.9,0,0,1,235.465,246.2a5.586,5.586,0,1,0,9.612,5.693,64.058,64.058,0,0,0-55.12-96.7h-10.1a29.763,29.763,0,0,1-27.716-18.7,40.888,40.888,0,0,0-38.076-25.686h-20.2A220.1,220.1,0,0,1,143.57,69.772a5.586,5.586,0,1,0-5.784-9.558A228.551,228.551,0,0,0,27.327,256,227.257,227.257,0,0,0,53.188,361.542a5.529,5.529,0,0,0,.74,1.4C92.371,435.289,168.521,484.673,256,484.673c84.262,0,158.016-45.818,197.683-113.842a5.54,5.54,0,0,0,.879-1.507,228.637,228.637,0,0,0,24.392-164.23C478.928,204.937,478.893,204.785,478.854,204.633Z"/><path d="M58.424,272.129a5.587,5.587,0,0,0,0,11.173H189.957a5.587,5.587,0,1,0,0-11.173Z"/></svg>