<?xml version="1.0" encoding="UTF-8" standalone="no"?> <svg id="icon" fill="#fff" xmlns="http://www.w3.org/2000/svg" viewBox="0 0 512 512"><title>moon</title><path d="M161.4,122.524a5.584,5.584,0,0,0,1.731-.276A64.045,64.045,0,0,0,205.04,44.383a218.64,218.64,0,0,1,129.012,9.08A67.772,67.772,0,0,0,318.353,97a68.479,68.479,0,0,0,54.521,66.886,5.586,5.586,0,0,0,2.24-10.946A57.266,57.266,0,0,1,329.526,97a56.7,56.7,0,0,1,14.408-37.9c.458.421.919.839,1.353,1.3a411.782,411.782,0,0,0,83.2,68.079,26.191,26.191,0,0,1,3.234,2.418,57.338,57.338,0,0,1-10.544,10.412,5.586,5.586,0,1,0,6.74,8.911,68.511,68.511,0,0,0,10.946-10.368,214.66,214.66,0,0,1,31.832,87.673,29.5,29.5,0,0,1,.234,4.334,74.119,74.119,0,0,0-30.4,24.521,5.586,5.586,0,1,0,9.056,6.544A63.017,63.017,0,0,1,467.8,246.082a365.169,365.169,0,0,0-15.567,90.86,62.4,62.4,0,0,1-12.019-23.764,5.586,5.586,0,1,0-10.816,2.8,73.708,73.708,0,0,0,21.068,35.409,26.535,26.535,0,0,1-1.329,3.116,219.283,219.283,0,0,1-100.425,98.075,5.587,5.587,0,1,0,4.82,10.08A230.526,230.526,0,0,0,459.1,359.558a37.914,37.914,0,0,0,4.079-16.055,354.113,354.113,0,0,1,16.908-99.289,41.719,41.719,0,0,0,1.684-18.147,225.856,225.856,0,0,0-35.689-95.658,38.336,38.336,0,0,0-11.709-11.427,400.547,400.547,0,0,1-80.938-66.23,34.785,34.785,0,0,0-12.3-8.509,229.346,229.346,0,0,0-180.393,3.476,5.586,5.586,0,0,0,4.61,10.177,216.683,216.683,0,0,1,28.885-10.672,52.888,52.888,0,0,1-34.564,64.4,5.587,5.587,0,0,0,1.728,10.9Z"/><path d="M203.724,292.942a5.589,5.589,0,0,0-6.353-4.7,61.313,61.313,0,0,1-27.05-2.037,5.586,5.586,0,1,0-3.309,10.67,71.8,71.8,0,0,0,21.295,3.213,72.628,72.628,0,0,0,10.72-.8A5.587,5.587,0,0,0,203.724,292.942Z"/><path d="M126.569,264.967a5.587,5.587,0,0,0,9.6-5.715,60.632,60.632,0,1,1,96,10.89,5.586,5.586,0,1,0,8.082,7.714,71.789,71.789,0,1,0-113.684-12.889Z"/><path d="M353.65,318.725a5.584,5.584,0,0,0,7.292-3.039,28.876,28.876,0,1,0-26.7,17.882,5.586,5.586,0,0,0,0-11.172,17.681,17.681,0,1,1,16.375-10.963A5.586,5.586,0,0,0,353.65,318.725Z"/><path d="M126.348,344.344a5.587,5.587,0,0,0-7.867.733C108.146,357.539,116.2,380.7,136.81,397.8c12.366,10.258,26.035,15.67,37.228,15.669,7.466,0,13.833-2.41,17.968-7.4,5.33-6.423,6.006-15.717,1.906-26.167-3.662-9.336-10.848-18.765-20.234-26.551a5.586,5.586,0,1,0-7.133,8.6c7.957,6.6,13.983,14.425,16.967,22.032,2.509,6.4,2.471,11.849-.1,14.954-5.349,6.445-22.869,4.028-39.465-9.739s-22.206-30.542-16.862-36.986A5.586,5.586,0,0,0,126.348,344.344Z"/><path d="M33.188,275.941c0,6.948-.2,14.024-.6,21.033a66.932,66.932,0,0,0,2.456,22.2A228.932,228.932,0,0,0,240.61,484.48q1.06.066,2.122.066a34.053,34.053,0,0,0,12.732-2.453q1.583-.641,3.25-1.327c13.757-5.642,32.6-13.367,61.573-14.267a5.586,5.586,0,1,0-.346-11.167c-31,.962-50.919,9.131-65.466,15.1-1.038.426-2.046.838-3.034,1.239A52.919,52.919,0,0,1,319.3,426.69a5.586,5.586,0,1,0,3.226-10.7,64.076,64.076,0,0,0-82.419,57.249A217.74,217.74,0,0,1,45.79,316.107,55.774,55.774,0,0,1,43.748,297.6c.406-7.217.612-14.5.612-21.661a388.326,388.326,0,0,0-2.879-47.1,56.233,56.233,0,0,1,.854-18.733A216.958,216.958,0,0,1,97.523,106.083a63.821,63.821,0,0,0,25.918,16.166,5.586,5.586,0,0,0,3.462-10.623A52.693,52.693,0,0,1,105.434,98.2a219.357,219.357,0,0,1,20.3-17.022,5.586,5.586,0,1,0-6.646-8.981A228.622,228.622,0,0,0,31.413,207.753,67.359,67.359,0,0,0,30.391,230.2,377.094,377.094,0,0,1,33.188,275.941Z"/></svg>