<?xml version="1.0" encoding="UTF-8" standalone="no"?> <svg id="icon" fill="#fff" xmlns="http://www.w3.org/2000/svg" viewBox="0 0 512 512"><title>solar system</title><path d="M264.97,108.929c-2.954-.184-5.971-.277-8.97-.277-78.916,0-143.118,64.2-143.118,143.117S177.084,394.888,256,394.888a142.433,142.433,0,0,0,99.12-39.881,5.586,5.586,0,0,0-7.738-8.058A131.321,131.321,0,0,1,256,383.716c-72.755,0-131.946-59.191-131.946-131.947S183.245,119.824,256,119.824c2.768,0,5.553.086,8.277.256a5.586,5.586,0,0,0,.693-11.151Z"/><path d="M377.565,321.726a5.584,5.584,0,0,0,4.939-2.969,142.75,142.75,0,0,0,8.807-20.25,5.586,5.586,0,1,0-10.56-3.647,131.546,131.546,0,0,1-8.116,18.66,5.588,5.588,0,0,0,4.93,8.206Z"/><path d="M373.475,180a5.586,5.586,0,0,0-2.158,7.6,132.013,132.013,0,0,1,16.629,64.172,133.9,133.9,0,0,1-.682,13.5,5.588,5.588,0,0,0,4.993,6.123c.191.019.382.028.571.028a5.586,5.586,0,0,0,5.551-5.022,145.384,145.384,0,0,0,.739-14.627,143.206,143.206,0,0,0-18.044-69.614A5.586,5.586,0,0,0,373.475,180Z"/><path d="M256,30.637A221.142,221.142,0,0,0,146.744,59.47a5.586,5.586,0,1,0,5.527,9.708A209.971,209.971,0,0,1,256,41.81c115.772,0,209.96,94.187,209.96,209.959a208.833,208.833,0,0,1-36.355,118.125,5.586,5.586,0,1,0,9.232,6.293,219.969,219.969,0,0,0,38.3-124.418C477.133,129.836,377.933,30.637,256,30.637Z"/><path d="M125.555,80.073a5.585,5.585,0,0,0-7.854-.862c-4.189,3.362-8.312,6.924-12.255,10.59a5.586,5.586,0,1,0,7.607,8.183c3.745-3.482,7.662-6.867,11.641-10.058A5.586,5.586,0,0,0,125.555,80.073Z"/><path d="M256,472.9a222.215,222.215,0,0,0,50.3-5.748,5.585,5.585,0,1,0-2.531-10.88A211.153,211.153,0,0,1,256,461.73c-115.773,0-209.96-94.188-209.96-209.961A208.4,208.4,0,0,1,86,128.527a5.586,5.586,0,0,0-9.04-6.565,219.5,219.5,0,0,0-42.09,129.807C34.867,373.7,134.067,472.9,256,472.9Z"/><path d="M197.226,238.145a5.586,5.586,0,0,0,10.883,2.523,49.157,49.157,0,1,1,3.656,32.555,5.586,5.586,0,1,0-10.049,4.882,60.111,60.111,0,0,0,40.659,32.439,60.817,60.817,0,0,0,13.741,1.582,60.343,60.343,0,1,0-58.89-73.981Z"/><path d="M431.15,428.958a52.4,52.4,0,1,0-52.4,52.4A52.464,52.464,0,0,0,431.15,428.958Zm-93.636,0a41.232,41.232,0,1,1,41.231,41.232A41.278,41.278,0,0,1,337.514,428.958Z"/><path d="M331.927,98.614a38.692,38.692,0,1,0,38.692,38.692A38.736,38.736,0,0,0,331.927,98.614Zm0,66.21a27.519,27.519,0,1,1,27.519-27.518A27.549,27.549,0,0,1,331.927,164.824Z"/></svg>