<?xml version="1.0" encoding="UTF-8" standalone="no"?> <svg id="icon" fill="#fff" xmlns="http://www.w3.org/2000/svg" viewBox="0 0 512 512"><title>footprint Astronaut</title><path d="M136.472,366.069a5.585,5.585,0,0,0-7.876.607,71.5,71.5,0,0,0-.554,92.352,14.811,14.811,0,0,0,11.4,5.39,15.027,15.027,0,0,0,5.143-.914,14.621,14.621,0,0,0,9.71-13.887v-58.8a5.587,5.587,0,0,0-11.173,0v58.8A3.444,3.444,0,0,1,140.766,453a3.654,3.654,0,0,1-4.155-1.143,60.33,60.33,0,0,1,.468-77.915A5.585,5.585,0,0,0,136.472,366.069Z"/><path d="M333.2,455.778a2.858,2.858,0,0,1-1.855-2.737V374.646a3.239,3.239,0,0,1,1.211-2.65,5.586,5.586,0,1,0-7.021-8.69,14.488,14.488,0,0,0-5.363,11.34v78.395a14.1,14.1,0,0,0,24.222,9.853,71.469,71.469,0,0,0,9.28-87.588,5.586,5.586,0,0,0-9.468,5.93,60.3,60.3,0,0,1-7.837,73.884A2.793,2.793,0,0,1,333.2,455.778Z"/><path d="M272.839,352.856a5.586,5.586,0,1,0,0-11.172,26.007,26.007,0,0,0-25.979,25.978v91.327a25.714,25.714,0,0,0,25.685,25.685h.587a25.714,25.714,0,0,0,25.685-25.685V367.662a5.586,5.586,0,0,0-11.172,0v91.327A14.531,14.531,0,0,1,273.132,473.5h-.587a14.531,14.531,0,0,1-14.512-14.513V367.662A14.823,14.823,0,0,1,272.839,352.856Z"/><path d="M226.553,367.7a5.587,5.587,0,0,0-11.173,0v91.272a14.512,14.512,0,0,1-14.507,14.513h-.629a14.512,14.512,0,0,1-14.474-14.493v-8.194a5.587,5.587,0,0,0-11.173,0v8.194a25.7,25.7,0,0,0,25.628,25.665l.61,0h.032a25.685,25.685,0,0,0,25.686-25.686Z"/><path d="M174.6,425.894a5.587,5.587,0,0,0,11.173,0v-1.256a5.587,5.587,0,1,0-11.173,0Z"/><path d="M180.183,407.633a5.587,5.587,0,0,0,5.587-5.586V367.7a14.827,14.827,0,0,1,14.78-14.806,5.587,5.587,0,0,0-.01-11.173h-.009A26.018,26.018,0,0,0,174.6,367.7v34.351A5.586,5.586,0,0,0,180.183,407.633Z"/><path d="M309.084,317.61h.407c18.332,0,33.246-14.2,33.246-31.653V199.049c0-32.517-27.918-58.971-62.234-58.971-24.835,0-45.98-16.6-50.277-39.477-.9-4.78-1.859-9.622-2.856-14.391A5.586,5.586,0,0,0,216.434,88.5c.981,4.7,1.928,9.462,2.811,14.169,5.289,28.152,31.052,48.585,61.258,48.585,28.156,0,51.062,21.443,51.062,47.8v52.019H310.477a5.587,5.587,0,1,0,0,11.173h21.088v23.716c0,11.292-9.9,20.481-22.074,20.481h-.407a2.433,2.433,0,0,1-2.314-1.645,24.054,24.054,0,0,0-43.514-2.859,8.475,8.475,0,0,1-7.566,4.5h-9.206a8.477,8.477,0,0,1-7.567-4.5,24.127,24.127,0,0,0-42.269,0,8.475,8.475,0,0,1-7.565,4.5h-9.208a8.473,8.473,0,0,1-7.565-4.5,24.128,24.128,0,0,0-42.27,0,8.473,8.473,0,0,1-7.565,4.5c-12.171,0-22.074-9.189-22.074-20.481v-7.31a5.586,5.586,0,1,0-11.172,0v7.31c0,17.453,14.913,31.653,33.246,31.653a19.613,19.613,0,0,0,17.467-10.5,12.964,12.964,0,0,1,22.466,0,19.611,19.611,0,0,0,17.467,10.5h9.208a19.61,19.61,0,0,0,17.466-10.5,12.964,12.964,0,0,1,22.467,0,19.618,19.618,0,0,0,17.468,10.5h9.206a19.618,19.618,0,0,0,17.468-10.5,12.663,12.663,0,0,1,11.232-6.493,12.364,12.364,0,0,1,11.845,7.895A13.652,13.652,0,0,0,309.084,317.61Z"/><path d="M125.837,102.325a5.613,5.613,0,0,0,.8-.058A235.68,235.68,0,0,0,219.449,68.15c.053-.033.093-.079.145-.114a5.443,5.443,0,0,0,.521-.408c.115-.1.229-.2.334-.3a5.51,5.51,0,0,0,.4-.473c.095-.122.192-.242.277-.372a5.554,5.554,0,0,0,.3-.538c.068-.134.137-.264.194-.4a5.58,5.58,0,0,0,.2-.61c.038-.136.079-.269.107-.407a5.617,5.617,0,0,0,.081-.638c.013-.149.026-.3.027-.446a5.752,5.752,0,0,0-.039-.6c-.018-.173-.039-.345-.073-.517-.015-.077-.014-.153-.032-.229-2.575-10.491-5.378-20.845-8.332-30.774a5.586,5.586,0,1,0-10.709,3.186c2.53,8.506,4.94,17.34,7.195,26.3a224.54,224.54,0,0,1-85,30.4,5.587,5.587,0,0,0,.79,11.117Z"/><path d="M278.789,262.241a5.587,5.587,0,1,0,0-11.173h-2.026a5.587,5.587,0,1,0,0,11.173Z"/><path d="M59.535,99.4a5.461,5.461,0,0,0,.333.887A456.7,456.7,0,0,1,85.6,201.692c0,.051-.005.1,0,.151.009.1.042.187.056.283a420.492,420.492,0,0,1,3.575,54.529,5.586,5.586,0,0,0,5.586,5.586h153.05a5.587,5.587,0,1,0,0-11.173h-147.5a431.73,431.73,0,0,0-2.9-44.421,55.93,55.93,0,0,1,49.553,30.682,5.587,5.587,0,1,0,9.956-5.071,67.072,67.072,0,0,0-60.019-36.8c-.3,0-.62.018-.926.022a466.482,466.482,0,0,0-22.811-91.26c5.815.39,11.649.605,17.453.605q2.121,0,4.236-.036a5.586,5.586,0,0,0-.091-11.171h-.095a250.4,250.4,0,0,1-25.79-.943,545.354,545.354,0,0,0-28.794-62.41,5.586,5.586,0,0,0-9.837,5.3A532.273,532.273,0,0,1,59.535,99.4Z"/><path d="M404.968,49.336A57.706,57.706,0,0,0,333.311,63a5.586,5.586,0,0,0,8.579,7.157,46.419,46.419,0,0,1,80.482,41.623,5.584,5.584,0,0,0,3.968,6.83,5.528,5.528,0,0,0,1.435.189,5.587,5.587,0,0,0,5.4-4.157A57.4,57.4,0,0,0,404.968,49.336Z"/><path d="M307.422,67.393C289.91,53.433,285.3,45.7,284.8,43.261c2.144-.827,10.164-1.235,28.792,4.612a5.587,5.587,0,0,0,3.347-10.66c-24.364-7.647-37.752-7.451-42.134.619-4.414,8.128,2.847,19.576,22.849,36.028,6.649,5.469,14.4,11.2,22.968,17.025a57.617,57.617,0,0,0,94.959,52.244,5.657,5.657,0,0,0,.789-.862c7.816,3.168,15.243,5.885,22.092,8.053,12.115,3.837,21.548,5.756,28.536,5.754,7.254,0,11.875-2.069,14.123-6.208,4.19-7.713-2.117-18.363-19.851-33.515a5.586,5.586,0,0,0-7.258,8.494c13.1,11.194,16.663,17.5,17.111,19.6-2.322.905-11.315,1.25-32.556-5.835-19.612-6.541-43.847-17.438-68.244-30.686S323.587,80.28,307.422,67.393Zm47.925,73.32a46.2,46.2,0,0,1-24.21-42.9c10.485,6.7,21.9,13.433,33.854,19.925,13.629,7.4,27.132,14.044,39.871,19.656A46.578,46.578,0,0,1,355.347,140.713Z"/></svg>