<?xml version="1.0" encoding="UTF-8" standalone="no"?> <svg id="icon" fill="#fff" xmlns="http://www.w3.org/2000/svg" viewBox="0 0 512 512"><title>comet</title><path d="M360.563,336.088a5.586,5.586,0,1,0-11.064-1.554l-4.068,28.953a37.407,37.407,0,0,1-5.134,14.467c-11.765,19.169-28.192,36.491-39.9,47.647a79.317,79.317,0,0,1-37.869,20.116,89.981,89.981,0,0,0-29.615,12.257L227.9,461.2a78.262,78.262,0,0,1-36.042,12.264,125.955,125.955,0,0,1-31.739-1.72c-33.1-7.831-61.3-26.307-83.836-54.913a120.562,120.562,0,0,1-25.471-74.383,5.587,5.587,0,1,0-11.173,0,131.792,131.792,0,0,0,27.867,81.3c23.793,30.205,54.929,50.562,90.161,58.9a132.393,132.393,0,0,0,25.24,2.332c3.123,0,6.421-.108,9.818-.373a89.457,89.457,0,0,0,41.211-14l5.017-3.221A78.888,78.888,0,0,1,264.9,456.634a90.489,90.489,0,0,0,43.2-22.944c12.188-11.614,29.32-29.7,41.715-49.89a48.5,48.5,0,0,0,6.675-18.759Z"/><path d="M48.069,309.528a5.58,5.58,0,0,0,6.688-4.2q.247-1.082.511-2.156a5.586,5.586,0,1,0-10.853-2.654q-.283,1.159-.551,2.325A5.586,5.586,0,0,0,48.069,309.528Z"/><path d="M151.4,154.957,121.181,182.85c-17.113,14.026-35.673,36.736-46.5,53.057a266.242,266.242,0,0,0-18.226,31.46,5.586,5.586,0,1,0,10.065,4.85,255.323,255.323,0,0,1,17.472-30.134c10.389-15.662,28.143-37.412,44.39-50.691.087-.071.172-.144.254-.22l30.215-27.89c15.778-12.867,29.819-19.027,42.892-18.853l8.343.116a79.82,79.82,0,0,0,30.186-5.537,5.587,5.587,0,0,0-4.11-10.39,67.138,67.138,0,0,1-25.921,4.755l-8.343-.116c-.241,0-.481,0-.722,0-15.634,0-31.845,7.034-49.525,21.485C151.566,154.808,151.48,154.88,151.4,154.957Z"/><path d="M268.437,113.094a5.587,5.587,0,0,0,7.88.555l6.62-5.75a41.354,41.354,0,0,1,29.4-10.127,52.873,52.873,0,0,0,39.445-14.821L389,46.829a32.784,32.784,0,0,1,38.94-3.08,5.587,5.587,0,0,0,5.891-9.5,43.909,43.909,0,0,0-52.284,4.25c-.074.064-.146.131-.217.2L344,74.935A41.683,41.683,0,0,1,312.91,86.613a52.555,52.555,0,0,0-37.3,12.85l-6.619,5.749A5.586,5.586,0,0,0,268.437,113.094Z"/><path d="M449.066,75.581c.088,0,.176,0,.265-.005a5.588,5.588,0,0,0,5.319-5.843c-.057-1.208-.164-2.43-.32-3.631a5.586,5.586,0,0,0-11.08,1.435c.117.9.2,1.814.24,2.72A5.586,5.586,0,0,0,449.066,75.581Z"/><path d="M436.329,101.486a5.583,5.583,0,0,0-7.832,1.028L358.5,193.668a38.8,38.8,0,0,0,1.7,49.246,38.4,38.4,0,0,1,1.752,48.635,5.587,5.587,0,0,0,8.88,6.781,49.6,49.6,0,0,0-2.262-62.817,27.606,27.606,0,0,1-1.214-35.04l70-91.153A5.587,5.587,0,0,0,436.329,101.486Z"/><path d="M229.305,87.807a5.585,5.585,0,1,0,5.3,9.833,28.819,28.819,0,1,0-40.062-13.806,5.587,5.587,0,0,0,10.229-4.5,17.492,17.492,0,0,1-1.48-7.086,17.653,17.653,0,1,1,26.012,15.555Z"/><path d="M420.829,178.917c-4.9,8.487-7.471,17.73-7.251,26.026.246,9.3,3.912,16.453,10.321,20.151a18.887,18.887,0,0,0,9.551,2.5,27.536,27.536,0,0,0,13.061-3.656c7.291-3.96,14-10.816,18.9-19.3a54.117,54.117,0,0,0,6.9-19.705,5.586,5.586,0,0,0-11.077-1.457,42.857,42.857,0,0,1-5.5,15.578c-3.825,6.63-9.131,12.122-14.557,15.071-2.679,1.456-7.76,3.561-11.695,1.29s-4.655-7.721-4.736-10.771c-.163-6.172,1.936-13.515,5.761-20.145,7.4-12.835,17.934-18.412,24.075-17.176a5.586,5.586,0,1,0,2.232-10.946C444.705,153.894,429.91,163.177,420.829,178.917Z"/><path d="M238.4,245.351a59.427,59.427,0,0,1,14.462,9.9,5.586,5.586,0,0,0,7.685-8.109,70.813,70.813,0,0,0-17.222-11.822,5.587,5.587,0,0,0-4.925,10.03Z"/><path d="M138.879,339.008l-1.153-8.84a5.586,5.586,0,1,0-11.078,1.446l1.153,8.84a5.586,5.586,0,0,0,5.532,4.864,5.648,5.648,0,0,0,.73-.047A5.587,5.587,0,0,0,138.879,339.008Z"/><path d="M169.5,217.977h-9.717a32.987,32.987,0,0,0-20.873,7.467L126.776,235.4a32.915,32.915,0,0,0-12.016,24.361l-.732,22.321a28.091,28.091,0,0,1-6.011,16.523l-.345.439a39.309,39.309,0,0,0-8.3,27.333c.732,9.515,1.961,19.552,3.654,29.828a39.746,39.746,0,0,0,20.37,28.451l3.681,1.963a5.586,5.586,0,1,0,5.256-9.858l-3.68-1.963a28.508,28.508,0,0,1-14.6-20.41c-1.641-9.96-2.831-19.672-3.538-28.868a28.16,28.16,0,0,1,5.952-19.581l.344-.439a39.188,39.188,0,0,0,8.387-23.053l.732-22.32a21.738,21.738,0,0,1,7.936-16.09L146,234.081a21.792,21.792,0,0,1,13.786-4.931H169.5a5.587,5.587,0,0,0,0-11.173Z"/><path d="M160.421,414.118l24.649,4.046a34.112,34.112,0,0,0,5.543.455,33.49,33.49,0,0,0,22.792-8.953l2.391-2.206a14.86,14.86,0,0,1,12.008-3.833l11.724,1.5a28.142,28.142,0,0,0,18.612-4.139L273,391.568a5.586,5.586,0,1,0-5.984-9.435l-14.857,9.423a16.955,16.955,0,0,1-11.21,2.492l-11.723-1.5a26.016,26.016,0,0,0-21.008,6.706l-2.391,2.206a22.4,22.4,0,0,1-18.946,5.682l-24.649-4.046a22.63,22.63,0,0,1-15.107-9.742,5.586,5.586,0,1,0-9.3,6.2A33.839,33.839,0,0,0,160.421,414.118Z"/><path d="M295.939,334.375l-12.532,12.141a26.156,26.156,0,0,0-7.755,15.685,5.586,5.586,0,0,0,4.9,6.2,5.667,5.667,0,0,0,.66.038,5.587,5.587,0,0,0,5.541-4.933,14.952,14.952,0,0,1,4.433-8.966L303.712,342.4a26.213,26.213,0,0,0,7.935-18.731V289.033a26.249,26.249,0,0,0-12.412-22.211,15.009,15.009,0,0,1-7.1-12.7,28.038,28.038,0,0,0-5.5-16.629,5.586,5.586,0,0,0-8.964,6.669,16.792,16.792,0,0,1,3.295,9.96,26.252,26.252,0,0,0,12.412,22.212,15,15,0,0,1,7.1,12.7v34.636A14.979,14.979,0,0,1,295.939,334.375Z"/><path d="M215.925,209.373l-14.6,7.1a15,15,0,0,1-6.522,1.5,5.587,5.587,0,0,0,0,11.173,26.239,26.239,0,0,0,11.409-2.628l14.6-7.1a23.222,23.222,0,0,1,16.6-1.468,86.074,86.074,0,0,1,26.35,12.587,5.586,5.586,0,0,0,6.565-9.04A97.334,97.334,0,0,0,240.5,207.214,34.387,34.387,0,0,0,215.925,209.373Z"/><path d="M167.519,265.364a11.455,11.455,0,0,1,5.962-2.8,10.592,10.592,0,0,1,8.6,2.431,5.587,5.587,0,0,0,7.266-8.488,21.905,21.905,0,0,0-17.543-4.99,22.6,22.6,0,0,0-11.63,5.43c-5.483,4.779-7.837,10.983-6.629,17.467,1.192,6.4,6.042,12.5,11.531,14.495a34.9,34.9,0,0,0,11.551,1.975c6.247,0,12.749-1.79,16.695-7.036a5.587,5.587,0,0,0-8.93-6.716c-2.719,3.614-11.4,2.765-15.5,1.278-1.248-.454-3.774-2.861-4.365-6.04C164.058,269.819,165.035,267.529,167.519,265.364Z"/><path d="M211.326,299.278c.135,6.446,2.725,20.748,11.56,28.746A20.683,20.683,0,0,0,237,333.537q.875,0,1.763-.07l.574-.049a29.677,29.677,0,0,0,3.49-.541,5.586,5.586,0,0,0-2.377-10.917,18.375,18.375,0,0,1-2.168.335l-.383.034a9.441,9.441,0,0,1-7.517-2.588c-5.241-4.744-7.768-14.96-7.889-20.7-.06-2.9,2.4-8.487,7.182-11.444,4.025-2.488,8.648-2.392,13.743.283a19.589,19.589,0,0,1,8.043,7.682,18.251,18.251,0,0,1,2.465,8.8,5.586,5.586,0,1,0,11.17-.218,29.706,29.706,0,0,0-3.939-14.138A30.578,30.578,0,0,0,248.62,278c-8.594-4.519-17.408-4.482-24.819.1C215.428,283.276,211.187,292.673,211.326,299.278Z"/><path d="M163.913,359.274c0,8.226,6.752,15.554,17.2,18.669a5.586,5.586,0,1,0,3.192-10.706c-5.43-1.619-9.222-4.893-9.222-7.963,0-4.284,7.34-9.077,17.164-9.077s17.163,4.793,17.163,9.077a6.113,6.113,0,0,1-2.155,4.158,5.586,5.586,0,1,0,7.713,8.082,16.784,16.784,0,0,0,5.615-12.24c0-11.354-12.447-20.249-28.336-20.249S163.913,347.92,163.913,359.274Z"/><path d="M281.5,37.394l1-1.187a5.586,5.586,0,1,0-8.558-7.182l-1,1.187a5.587,5.587,0,0,0,8.559,7.182Z"/><path d="M415.371,265.013l-1,1.187a5.586,5.586,0,0,0,8.557,7.184l1-1.186a5.586,5.586,0,1,0-8.556-7.185Z"/></svg>