<?xml version="1.0" encoding="UTF-8" standalone="no"?> <svg id="icon" fill="#fff" xmlns="http://www.w3.org/2000/svg" viewBox="0 0 512 512"><title>rocket</title><path d="M138.738,324.166l2.2-2.2a5.587,5.587,0,1,0-7.9-7.9l-2.2,2.2a5.587,5.587,0,1,0,7.9,7.9Z"/><path d="M194.812,385.826a5.57,5.57,0,0,0,3.95-1.635l3.091-3.092a5.586,5.586,0,1,0-7.9-7.9l-3.092,3.091a5.586,5.586,0,0,0,3.951,9.536Z"/><path d="M80.727,482.331a47.715,47.715,0,0,0,33.963-14.068l63.472-63.472a5.587,5.587,0,0,0-7.9-7.9l-63.472,63.473a36.857,36.857,0,0,1-52.123-52.125L118.109,344.8a5.586,5.586,0,0,0-7.9-7.9L46.765,400.338a48.031,48.031,0,0,0,33.962,81.993Z"/><path d="M451.991,30.469C370.138,21.948,306.737,84.3,304.078,86.962l-62.116,62.116a5.46,5.46,0,0,0-.618-.106l-52.477-3.7a40.928,40.928,0,0,0-29.695,10.009c-14.091,12.38-41.6,36.823-67.52,61.433a13.868,13.868,0,0,0,9.5,23.926,14.017,14.017,0,0,0,3.151-.361c6.828-1.577,24.817-5.1,44.331-3.706a5.586,5.586,0,0,0,.794-11.144,166.628,166.628,0,0,0-47.64,3.964,2.689,2.689,0,0,1-2.446-4.576c25.784-24.482,53.172-48.816,67.2-61.143a29.218,29.218,0,0,1,21.536-7.256l43.476,3.061-30.32,30.32-27.07,27.069a21.1,21.1,0,0,0,0,29.8l6.248,6.248L173.337,260a20.923,20.923,0,0,0-5.6,19.372L151.193,295.91a5.586,5.586,0,0,0,7.9,7.9l14.223-14.223.021.023,15.42,15.42a5.586,5.586,0,0,0,7.9-7.9l-15.42-15.419a9.78,9.78,0,0,1,0-13.814l7.078-7.078,65.893,65.893-7.077,7.078a9.778,9.778,0,0,1-13.813,0l-15.408-15.408a5.587,5.587,0,1,0-7.9,7.9l15.408,15.407c.008.008.016.013.023.021l-14.673,14.672a5.587,5.587,0,0,0,7.9,7.9l16.991-16.991a20.821,20.821,0,0,0,19.372-5.6l7.078-7.078,6.248,6.248a21.1,21.1,0,0,0,29.8,0l27.069-27.07a5.586,5.586,0,0,0,0-7.9l-28.031-28.031a5.586,5.586,0,0,0-7.9,7.9l24.081,24.081-23.118,23.119a9.909,9.909,0,0,1-14,0L182.069,238.77a9.909,9.909,0,0,1,0-14l23.119-23.119,59.824,59.824a5.587,5.587,0,0,0,7.9-7.9l-59.825-59.824,98.888-98.888c.614-.613,62.393-61.258,138.857-53.284a25.182,25.182,0,0,1,22.614,22.614c7.966,76.472-52.671,138.242-53.282,138.854l-81.074,81.074a5.586,5.586,0,1,0,7.9,7.9l8.554-8.554,3.061,43.477a29.272,29.272,0,0,1-7.257,21.535c-12.335,14.039-36.681,41.439-61.142,67.2a2.682,2.682,0,0,1-1.922.84,2.6,2.6,0,0,1-1.936-.787,2.666,2.666,0,0,1-.719-2.5,168.8,168.8,0,0,0,4.16-44.332,5.587,5.587,0,0,0-11.161.522,157.269,157.269,0,0,1-3.885,41.3,13.861,13.861,0,0,0,13.5,16.975l.185,0a13.765,13.765,0,0,0,9.88-4.319c24.59-25.9,49.044-53.421,61.432-67.521a40.913,40.913,0,0,0,10.01-29.694l-3.743-53.155,62.056-62.057c2.659-2.659,65.02-66.06,56.494-147.913A36.717,36.717,0,0,0,451.991,30.469Z"/><path d="M370.565,103.34a5.6,5.6,0,0,0-6.074-5.051,48.032,48.032,0,1,0,38.382,13.865,5.586,5.586,0,1,0-7.9,7.9,36.854,36.854,0,1,1-29.46-10.64A5.587,5.587,0,0,0,370.565,103.34Z"/><path d="M362.525,120.783A26.261,26.261,0,0,0,346.2,133.209a5.586,5.586,0,1,0,9.711,5.522,15.045,15.045,0,0,1,9.35-7.115,5.586,5.586,0,0,0-2.734-10.833Z"/></svg>